<?xml version="1.0" standalone="no"?>
<!DOCTYPE svg PUBLIC "-//W3C//DTD SVG 20010904//EN"
 "http://www.w3.org/TR/2001/REC-SVG-20010904/DTD/svg10.dtd">
<svg version="1.0" xmlns="http://www.w3.org/2000/svg"
 width="800.000000pt" height="800.000000pt" viewBox="0 0 800.000000 800.000000"
 preserveAspectRatio="xMidYMid meet">
<metadata>
Created by potrace 1.11, written by Peter Selinger 2001-2013
</metadata>
<g transform="translate(0.000000,800.000000) scale(0.100000,-0.100000)"
fill="#000000" stroke="none">
<path d="M1950 6033 c-44 -15 -93 -46 -120 -75 -63 -71 -60 1 -59 -1353 1
-1162 2 -1235 19 -1317 43 -198 130 -356 274 -495 142 -138 325 -232 507 -260
30 -4 540 -8 1134 -8 1201 0 1133 -4 1310 69 331 135 559 448 591 811 4 39 7
71 8 71 0 1 114 4 251 7 267 6 314 12 476 67 460 154 795 563 859 1050 9 68 6
304 -4 355 -36 176 -67 268 -132 396 -40 76 -64 114 -147 223 -52 69 -177 182
-271 245 -62 42 -130 82 -146 86 -3 1 -30 13 -60 27 -86 39 -181 68 -292 88
-99 18 -190 19 -2143 19 -1122 0 -2047 -3 -2055 -6z m4120 -649 c210 -43 397
-216 471 -435 32 -93 32 -275 1 -374 -66 -203 -223 -362 -425 -427 -52 -17
-97 -21 -284 -25 l-223 -5 0 641 0 642 198 -2 c121 -1 222 -7 262 -15z"/>
<path d="M870 2178 c-39 -27 -58 -73 -59 -141 -1 -51 16 -136 30 -152 5 -5 9
-15 9 -23 0 -8 20 -45 44 -82 48 -72 115 -134 184 -169 103 -52 -51 -50 2758
-50 1717 -1 2629 2 2665 9 177 33 329 183 379 375 24 95 3 198 -50 235 -28 20
-50 20 -2978 20 l-2949 0 -33 -22z"/>
</g>
</svg>
